<?xml version="1.0" encoding="UTF-8" standalone="no"?>
<!-- Created with Inkscape (http://www.inkscape.org/) -->

<svg
   xmlns:dc="http://purl.org/dc/elements/1.1/"
   xmlns:cc="http://creativecommons.org/ns#"
   xmlns:rdf="http://www.w3.org/1999/02/22-rdf-syntax-ns#"
   xmlns:svg="http://www.w3.org/2000/svg"
   xmlns="http://www.w3.org/2000/svg"
   xmlns:sodipodi="http://sodipodi.sourceforge.net/DTD/sodipodi-0.dtd"
   xmlns:inkscape="http://www.inkscape.org/namespaces/inkscape"
   width="500"
   height="500"
   viewBox="0 0 500.00001 500.00001"
   id="svg2"
   version="1.1"
   inkscape:version="0.91 r13725"
   sodipodi:docname="logo2.svg">
  <defs
     id="defs4" />
  <sodipodi:namedview
     id="base"
     pagecolor="#ffffff"
     bordercolor="#666666"
     borderopacity="1.0"
     inkscape:pageopacity="0.0"
     inkscape:pageshadow="2"
     inkscape:zoom="0.77498903"
     inkscape:cx="250"
     inkscape:cy="172.57955"
     inkscape:document-units="px"
     inkscape:current-layer="layer1"
     showgrid="false"
     units="px"
     inkscape:window-width="1366"
     inkscape:window-height="715"
     inkscape:window-x="-8"
     inkscape:window-y="-8"
     inkscape:window-maximized="1" />
  <metadata
     id="metadata7">
    <rdf:RDF>
      <cc:Work
         rdf:about="">
        <dc:format>image/svg+xml</dc:format>
        <dc:type
           rdf:resource="http://purl.org/dc/dcmitype/StillImage" />
        <dc:title />
      </cc:Work>
    </rdf:RDF>
  </metadata>
  <g
     inkscape:groupmode="layer"
     id="layer4"
     inkscape:label="Layer 2"
     style="display:none"
     sodipodi:insensitive="true">
    <rect
       style="opacity:1;fill:#000000;fill-opacity:1;stroke:#000000;stroke-width:1.45199275;stroke-linecap:round;stroke-miterlimit:4;stroke-dasharray:none;stroke-opacity:1"
       id="rect5239"
       width="498.548"
       height="498.548"
       x="0.72599638"
       y="0.72599846" />
  </g>
  <g
     inkscape:label="Layer 1"
     inkscape:groupmode="layer"
     id="layer1"
     transform="translate(0,-552.36216)"
     style="display:inline">
    <g
       id="g5331"
       style="fill:#57c54f;fill-opacity:0.52976194;stroke:#57c54f;stroke-opacity:0.52941179"
       transform="matrix(2.2389353,0,0,2.2389353,-245.10605,-1176.3729)">
      <path
         transform="translate(0,552.36216)"
         id="path5321"
         d="m 184.37109,364.42383 c -0.588,0.89634 -1.22562,1.75092 -1.7539,2.69531 l -1.43946,2.57227 -2.87304,-0.6543 c -2.19562,-0.49986 -4.43965,-0.75769 -6.69141,-0.77149 -2.14475,8.2e-4 -4.2378,0.21679 -6.25781,0.62891 -2.02001,0.41213 -3.96793,1.02025 -5.82227,1.80274 -1.85434,0.78248 -3.61399,1.73966 -5.26172,2.85156 -1.64773,1.1119 -3.18185,2.37892 -4.58203,3.77929 -1.40018,1.40037 -2.66759,2.93415 -3.77929,4.58204 -1.1117,1.64789 -2.06929,3.40921 -2.85157,5.26367 -0.78228,1.85447 -1.38886,3.80216 -1.80078,5.82226 -0.41192,2.02009 -0.62827,4.11304 -0.6289,6.25782 0.0111,2.05418 0.22425,4.10155 0.64062,6.11328 l 0.79492,3.83984 -3.83593,0.81445 c -1.45053,0.30758 -2.79631,0.85475 -3.99805,1.59571 -1.20173,0.74096 -2.25925,1.6746 -3.13672,2.75586 -0.87746,1.08125 -1.57501,2.31019 -2.05273,3.63867 -0.47772,1.32848 -0.73579,2.75759 -0.73829,4.24023 l 0,0.004 0,0.002 c 3.6e-4,0.8701 0.088,1.71701 0.25391,2.53516 0.16588,0.81815 0.40945,1.60745 0.72461,2.35742 0.63034,1.49996 1.54368,2.84669 2.67383,3.97656 1.13016,1.12986 2.47834,2.04196 3.97851,2.67188 0.75008,0.31496 1.53721,0.56094 2.35547,0.72656 0.81825,0.16563 1.66691,0.25189 2.53711,0.25195 l 0.002,0 153.41993,0.13868 c 1.35911,-3e-4 2.68557,-0.13826 3.96484,-0.39844 1.27926,-0.26018 2.51184,-0.64238 3.68555,-1.13672 1.17371,-0.49434 2.28766,-1.09996 3.33008,-1.80274 1.04242,-0.70277 2.01302,-1.50318 2.89843,-2.38867 0.88541,-0.8855 1.686,-1.85595 2.38867,-2.89843 0.70268,-1.04248 1.30657,-2.15633 1.80079,-3.33008 0.49422,-1.17375 0.87864,-2.40821 1.13867,-3.6875 0.26004,-1.27929 0.39635,-2.60379 0.39648,-3.96289 -8.4e-4,-1.09056 -0.0919,-2.16434 -0.26562,-3.21289 -0.17373,-1.04856 -0.42909,-2.07198 -0.76367,-3.0625 -0.66916,-1.98104 -1.64835,-3.82972 -2.88868,-5.48243 -1.24033,-1.65272 -2.74187,-3.11049 -4.45703,-4.30664 -0.85758,-0.59808 -1.77028,-1.12995 -2.72851,-1.58984 -0.95822,-0.45988 -1.96294,-0.84667 -3.00977,-1.15234 l -3.11328,-0.91016 0.29492,-3.23047 c 0.0681,-0.74529 0.10533,-1.49342 0.11133,-2.24219 -4.7e-4,-1.85666 -0.18855,-3.66759 -0.54492,-5.41601 -0.0119,-0.0584 -0.0405,-0.10975 -0.0527,-0.16797 l -0.5664,0.2207 c -2.28422,0.8918 -3.64903,1.34416 -3.69727,1.22266 -0.0421,-0.1059 -0.1413,0.10766 -0.2207,0.47656 -0.12362,0.5777 0.0391,1.16309 1.18164,4.20899 0.72988,1.9455 1.31656,3.5638 1.30273,3.5957 -0.0616,0.1403 -15.18334,6.03115 -15.32421,5.96875 -0.0861,-0.038 -0.82074,-1.76003 -1.63282,-3.82813 -1.20522,-3.0653 -1.53577,-3.76126 -1.79297,-3.75976 -0.17346,9e-4 -1.951,0.66375 -3.95117,1.47265 l -3.63672,1.47071 -6.19336,-15.87305 -6.1914,-15.875 -7.96485,3.10938 -7.96289,3.10937 -1.46289,-3.82812 c -1.02316,-2.6767 -1.54788,-3.84888 -1.74219,-3.89258 -0.15289,-0.034 -5.44628,1.96365 -11.76171,4.43945 -6.31537,2.4762 -11.57021,4.53135 -11.67969,4.56445 -0.12519,0.039 -0.75758,-1.37006 -1.71484,-3.82226 l -1.51563,-3.88281 -7.5625,2.98828 c -5.09204,2.0127 -7.71485,2.96964 -8.03125,2.93164 -0.22402,-0.027 -0.35787,-0.0852 -0.60938,-0.58985 -0.2515,-0.5046 -0.61943,-1.45623 -1.3125,-3.26953 l -1.45312,-3.80078 -3.92969,1.51367 -2.63672,1.01563 z"
         style="opacity:1;fill:#57c54f;fill-opacity:0.52976194;fill-rule:nonzero;stroke:#57c54f;stroke-width:1;stroke-linecap:round;stroke-miterlimit:4;stroke-dasharray:none;stroke-opacity:0.52941179"
         inkscape:connector-curvature="0" />
      <path
         inkscape:connector-curvature="0"
         id="path4970"
         d="m 221.79266,783.9704 -20.73242,8.02344 c -11.40324,4.41283 -21.23621,8.24999 -21.84961,8.52734 -0.61333,0.27753 -5.53292,2.22957 -10.9336,4.33789 l -0.002,0.002 -9.81836,3.83398 3.08789,7.91211 3.08985,7.91211 -3.89063,1.58008 -3.88867,1.57812 4.56445,11.8418 4.56641,11.84375 -3.88867,1.57812 -3.88868,1.57813 10.7793,27.61133 10.7793,27.61328 3.92773,-1.47266 3.92578,-1.47265 1.57813,3.88476 1.57617,3.88672 3.93164,-1.47461 3.92969,-1.47461 -4.63672,-11.87891 -4.63867,-11.8789 3.95898,-1.54492 3.95703,-1.54492 6.21094,15.76562 6.21289,15.76562 7.88672,-3.02148 7.88867,-3.01953 -4.63672,-11.87891 -4.63671,-11.87695 3.95703,-1.54492 3.95703,-1.54492 6.21289,15.76562 6.21094,15.76758 7.88867,-3.02149 7.88867,-3.02148 -6.18164,-15.83594 -6.18359,-15.83593 3.95898,-1.54493 3.95703,-1.54492 13.9375,35.5586 13.9375,35.55859 7.82031,-3.05469 7.82032,-3.05273 -16.92969,-43.51172 -16.92969,-43.51367 3.95703,-1.54492 3.95703,-1.54493 1.54688,3.95703 1.54492,3.95899 3.95508,-1.54297 3.95312,-1.54492 1.58008,3.89062 1.57813,3.88868 7.88867,-3.02149 7.88672,-3.02148 -2.26758,-5.84766 c -1.24713,-3.2167 -2.59524,-6.69935 -2.99609,-7.73828 -0.39936,-1.03948 -0.85786,-1.96035 -1.01758,-2.04883 -0.21392,-0.11849 -1.28255,0.23231 -4.05274,1.33398 l -3.75976,1.4961 -1.4336,-3.86328 c -0.83811,-2.25829 -1.52649,-3.88265 -1.6582,-3.90625 -0.12309,-0.0222 -1.95736,0.63754 -4.07617,1.46679 l -3.85156,1.50782 -3,-7.82422 c -2.4422,-6.37066 -3.05424,-7.82372 -3.29493,-7.82227 -0.16266,8.6e-4 -1.98231,0.66043 -4.04296,1.46485 l -3.7461,1.46289 -3.02539,-7.75782 c -1.78241,-4.56861 -3.12724,-7.80226 -3.27539,-7.86718 -0.14081,-0.0616 -1.91428,0.54698 -4.0293,1.38281 l -3.77929,1.49219 -3.00196,-7.83203 c -2.38258,-6.21987 -3.05934,-7.83353 -3.28515,-7.83204 -0.1561,7.6e-4 -1.97908,0.65602 -4.05274,1.45508 l -3.77148,1.45117 -2.86914,-7.375 c -1.5775,-4.05743 -2.96439,-7.61539 -3.08008,-7.90625 l -0.21289,-0.52734 z"
         style="opacity:1;fill:#57c54f;fill-opacity:0.52976194;stroke:#57c54f;stroke-width:1;stroke-linecap:round;stroke-miterlimit:4;stroke-dasharray:none;stroke-opacity:0.52941179" />
    </g>
    <path
       style="color:#000000;font-style:normal;font-variant:normal;font-weight:normal;font-stretch:normal;font-size:medium;line-height:normal;font-family:sans-serif;text-indent:0;text-align:start;text-decoration:none;text-decoration-line:none;text-decoration-style:solid;text-decoration-color:#000000;letter-spacing:normal;word-spacing:normal;text-transform:none;direction:ltr;block-progression:tb;writing-mode:lr-tb;baseline-shift:baseline;text-anchor:start;white-space:normal;clip-rule:nonzero;display:inline;overflow:visible;visibility:visible;opacity:1;isolation:auto;mix-blend-mode:normal;color-interpolation:sRGB;color-interpolation-filters:linearRGB;solid-color:#000000;solid-opacity:1;fill:#ffffff;fill-opacity:1;fill-rule:evenodd;stroke:none;stroke-width:7.87934589;stroke-linecap:butt;stroke-linejoin:miter;stroke-miterlimit:4;stroke-dasharray:none;stroke-dashoffset:0;stroke-opacity:1;color-rendering:auto;image-rendering:auto;shape-rendering:auto;text-rendering:auto;enable-background:accumulate"
       d="m 139.24743,868.20982 c -0.46299,0.15919 -0.68075,0.35872 -0.48104,0.44604 0.19972,0.0878 0.58047,-0.0421 0.84399,-0.28862 0.2907,-0.27315 0.14889,-0.33206 -0.36295,-0.1574 z"
       id="path5236"
       inkscape:connector-curvature="0" />
    <path
       style="color:#000000;font-style:normal;font-variant:normal;font-weight:normal;font-stretch:normal;font-size:medium;line-height:normal;font-family:sans-serif;text-indent:0;text-align:start;text-decoration:none;text-decoration-line:none;text-decoration-style:solid;text-decoration-color:#000000;letter-spacing:normal;word-spacing:normal;text-transform:none;direction:ltr;block-progression:tb;writing-mode:lr-tb;baseline-shift:baseline;text-anchor:start;white-space:normal;clip-rule:nonzero;display:inline;overflow:visible;visibility:visible;opacity:1;isolation:auto;mix-blend-mode:normal;color-interpolation:sRGB;color-interpolation-filters:linearRGB;solid-color:#000000;solid-opacity:1;fill:#ffffff;fill-opacity:1;fill-rule:evenodd;stroke:none;stroke-width:7.87934589;stroke-linecap:butt;stroke-linejoin:miter;stroke-miterlimit:4;stroke-dasharray:none;stroke-dashoffset:0;stroke-opacity:1;color-rendering:auto;image-rendering:auto;shape-rendering:auto;text-rendering:auto;enable-background:accumulate"
       d="m 211.26068,839.98262 -0.3542,-0.9052 -6.06526,-15.38829 c -5.87796,2.62616 -11.49608,5.73904 -16.87071,9.27495 l 1.68793,4.32481 4.82771,12.36226 c 5.28841,-3.7325 10.87169,-7.00448 16.77453,-9.66853 z"
       id="path5232"
       inkscape:connector-curvature="0" />
    <path
       style="color:#000000;font-style:normal;font-variant:normal;font-weight:normal;font-stretch:normal;font-size:medium;line-height:normal;font-family:sans-serif;text-indent:0;text-align:start;text-decoration:none;text-decoration-line:none;text-decoration-style:solid;text-decoration-color:#000000;letter-spacing:normal;word-spacing:normal;text-transform:none;direction:ltr;block-progression:tb;writing-mode:lr-tb;baseline-shift:baseline;text-anchor:start;white-space:normal;clip-rule:nonzero;display:inline;overflow:visible;visibility:visible;opacity:1;isolation:auto;mix-blend-mode:normal;color-interpolation:sRGB;color-interpolation-filters:linearRGB;solid-color:#000000;solid-opacity:1;fill:#ffffff;fill-opacity:1;fill-rule:evenodd;stroke:none;stroke-width:7.87934589;stroke-linecap:butt;stroke-linejoin:miter;stroke-miterlimit:4;stroke-dasharray:none;stroke-dashoffset:0;stroke-opacity:1;color-rendering:auto;image-rendering:auto;shape-rendering:auto;text-rendering:auto;enable-background:accumulate"
       d="m 269.56045,832.39561 -7.34651,-18.65051 c -3.05738,-0.24268 -6.10499,-0.53432 -9.20061,-0.53788 l -0.009,0 -0.004,0 c -3.76889,0.002 -7.47244,0.37607 -11.17719,0.7303 l 6.72556,17.2293 c 1.48809,-0.0665 2.94425,-0.30065 4.44288,-0.30174 l 0,-0.0179 0.0179,0 c 5.60665,0.007 11.11228,0.64224 16.55149,1.54803 z"
       id="path5228"
       inkscape:connector-curvature="0" />
    <path
       style="color:#000000;font-style:normal;font-variant:normal;font-weight:normal;font-stretch:normal;font-size:medium;line-height:normal;font-family:sans-serif;text-indent:0;text-align:start;text-decoration:none;text-decoration-line:none;text-decoration-style:solid;text-decoration-color:#000000;letter-spacing:normal;word-spacing:normal;text-transform:none;direction:ltr;block-progression:tb;writing-mode:lr-tb;baseline-shift:baseline;text-anchor:start;white-space:normal;clip-rule:nonzero;display:inline;overflow:visible;visibility:visible;opacity:1;isolation:auto;mix-blend-mode:normal;color-interpolation:sRGB;color-interpolation-filters:linearRGB;solid-color:#000000;solid-opacity:1;fill:#ffffff;fill-opacity:1;fill-rule:evenodd;stroke:none;stroke-width:7.87934589;stroke-linecap:butt;stroke-linejoin:miter;stroke-miterlimit:4;stroke-dasharray:none;stroke-dashoffset:0;stroke-opacity:1;color-rendering:auto;image-rendering:auto;shape-rendering:auto;text-rendering:auto;enable-background:accumulate"
       d="m 347.9363,876.06797 -6.45879,-16.47279 -4.48662,-11.44832 c -8.50182,-8.48722 -18.24679,-15.47154 -28.73884,-21.02063 l 11.11598,28.48083 c 5.95364,5.14155 11.36736,10.9895 16.0661,17.50919 l 3.56394,4.94139 5.88594,-1.58299 c 0.99561,-0.26796 2.04564,-0.19053 3.05229,-0.40668 z"
       id="path5224"
       inkscape:connector-curvature="0" />
    <path
       style="color:#000000;font-style:normal;font-variant:normal;font-weight:normal;font-stretch:normal;font-size:medium;line-height:normal;font-family:sans-serif;text-indent:0;text-align:start;text-decoration:none;text-decoration-line:none;text-decoration-style:solid;text-decoration-color:#000000;letter-spacing:normal;word-spacing:normal;text-transform:none;direction:ltr;block-progression:tb;writing-mode:lr-tb;baseline-shift:baseline;text-anchor:start;white-space:normal;clip-rule:nonzero;display:inline;overflow:visible;visibility:visible;opacity:1;isolation:auto;mix-blend-mode:normal;color-interpolation:sRGB;color-interpolation-filters:linearRGB;solid-color:#000000;solid-opacity:1;fill:#ffffff;fill-opacity:1;fill-rule:evenodd;stroke:none;stroke-width:7.87934589;stroke-linecap:butt;stroke-linejoin:miter;stroke-miterlimit:4;stroke-dasharray:none;stroke-dashoffset:0;stroke-opacity:1;color-rendering:auto;image-rendering:auto;shape-rendering:auto;text-rendering:auto;enable-background:accumulate"
       d="m 418.84759,921.18339 6.57687,-2.56692 -17.76718,-45.32968 c -7.4956,-5.81459 -16.02245,-10.19334 -25.32795,-12.96572 l 8.87265,22.80915 c 13.81248,8.29091 24.00311,21.83616 27.64561,38.05317 z"
       id="path5220"
       inkscape:connector-curvature="0" />
    <g
       id="g5335"
       transform="matrix(2.2389353,0,0,2.2389353,-245.10605,-1176.3729)">
      <path
         inkscape:connector-curvature="0"
         id="path4275-6"
         d="m 231.25591,784.58286 c 3.98631,10.21138 4.65289,11.80616 4.93543,11.80444 0.17966,-10e-4 1.94023,-0.63778 3.91262,-1.41493 1.97197,-0.77839 3.63498,-1.39165 3.69463,-1.36544 0.0598,0.0262 1.50492,3.5525 3.21155,7.83646 l 3.10321,7.78889 3.93061,-1.47399 3.93057,-1.47418 3.00438,7.69607 c 2.48697,6.37064 3.0663,7.71663 3.36324,7.81527 0.25278,0.0838 1.4422,-0.32303 4.0244,-1.3769 l 3.66556,-1.49602 3.0188,7.73349 c 2.24749,5.75772 3.10094,7.76962 3.34091,7.87475 0.22834,0.10002 1.40775,-0.28257 4.04885,-1.3136 l 3.72669,-1.45483 1.49954,3.84125 c 1.29784,3.32455 1.54666,3.84095 1.85074,3.83918 0.19315,-10e-4 1.99372,-0.64313 4.00124,-1.42683 l 3.65005,-1.4249 4.63065,11.71043 4.63065,11.71038 -11.77872,4.59817 -11.77872,4.59815 -1.40303,-3.76009 c -1.27817,-3.42599 -1.44286,-3.77143 -1.85137,-3.8875 -0.34192,-0.0971 -1.35492,0.22487 -4.2654,1.35568 l -3.81751,1.4817 13.97559,35.65487 13.97575,35.6547 -3.6206,1.4134 c -2.28422,0.8918 -3.6489,1.3423 -3.69714,1.2208 -0.0421,-0.1059 -0.14119,0.1094 -0.22059,0.4783 -0.12362,0.5777 0.0408,1.1626 1.18329,4.2085 0.72988,1.9455 1.31529,3.5637 1.30146,3.5956 -0.0616,0.1403 -15.18307,6.0306 -15.32394,5.9682 -0.0861,-0.038 -0.82114,-1.7607 -1.63322,-3.8288 -1.20522,-3.0653 -1.53486,-3.7598 -1.79206,-3.7583 -0.17346,9e-4 -1.95182,0.6638 -3.95199,1.4727 l -3.63655,1.4709 -6.19274,-15.8744 -6.19273,-15.8744 -7.96352,3.1099 -7.96352,3.1098 -1.46357,-3.8291 c -1.02316,-2.6767 -1.54743,-3.8479 -1.74174,-3.8916 -0.15289,-0.034 -5.44522,1.9631 -11.76065,4.4389 -6.31537,2.4762 -11.57126,4.5312 -11.68074,4.5643 -0.12519,0.039 -0.75718,-1.3697 -1.71445,-3.8219 l -1.51631,-3.8842 -7.56133,2.9886 c -5.09204,2.0127 -7.71472,2.9703 -8.03112,2.9323 -0.44805,-0.054 -0.53696,-0.2321 -1.9231,-3.8587 l -1.45317,-3.8024 -3.92801,1.5141 -3.92801,1.5142 -1.47611,-3.9077 -1.47599,-3.9077 -0.78207,0.1726 c -0.43011,0.095 -2.0395,0.671 -3.57648,1.2797 -1.53664,0.6095 -3.01947,1.1884 -3.29535,1.2858 l -0.50124,0.1781 -10.74693,-27.56937 -10.74693,-27.5694 3.81058,-1.43701 c 3.003,-1.13248 3.83456,-1.51089 3.92514,-1.78176 0.0824,-0.24813 -1.17678,-3.61028 -4.48805,-11.98369 l -4.60267,-11.63877 3.80545,-1.42126 c 3.08893,-1.15358 3.82841,-1.48809 3.92515,-1.78176 0.0892,-0.26861 -1.05401,-3.32855 -4.48288,-11.9993 l -4.60267,-11.63878 39.43937,-15.39631 39.43938,-15.39631 4.60894,11.80632 z m -62.79505,19.9204 -9.81945,3.8333 3.089,7.91285 3.089,7.91284 -3.88976,1.57871 -3.88968,1.57889 4.56569,11.8424 4.56562,11.84245 -3.88826,1.57811 -3.88827,1.57813 10.77931,27.61241 10.77928,27.61238 3.92658,-1.4726 3.92658,-1.4727 1.57714,3.8858 1.57713,3.8857 3.93057,-1.4741 3.93054,-1.4742 -4.63741,-11.8793 -4.63742,-11.87923 3.95732,-1.54485 3.95727,-1.54484 6.21175,15.76612 6.21166,15.7661 7.88822,-3.0213 7.88827,-3.0213 -4.6367,-11.8775 -4.6367,-11.87738 3.95728,-1.54484 3.95729,-1.54484 6.21175,15.76606 6.21175,15.7661 7.88824,-3.0213 7.88823,-3.0213 -6.18197,-15.8359 -6.18198,-15.83582 3.9579,-1.54508 3.95791,-1.54507 13.9376,35.55837 13.93763,35.5584 7.82029,-3.0528 7.8203,-3.0529 -16.93055,-43.5134 -16.93056,-43.51335 3.95798,-1.54511 3.95802,-1.54513 1.54529,3.95844 1.54527,3.95838 3.95445,-1.54373 3.95441,-1.54371 1.57871,3.88975 1.57887,3.88965 7.88824,-3.02132 7.88823,-3.02133 -2.26758,-5.84853 c -1.24713,-3.2167 -2.59564,-6.69852 -2.99649,-7.73745 -0.39936,-1.03948 -0.85874,-1.96163 -1.01846,-2.05011 -0.21392,-0.11849 -1.28123,0.23317 -4.05142,1.33485 l -3.76109,1.49562 -1.43411,-3.86393 c -0.83811,-2.25829 -1.52596,-3.88141 -1.65767,-3.90501 -0.12309,-0.0222 -1.95714,0.63765 -4.07595,1.4669 l -3.85223,1.50811 -2.9994,-7.82434 c -2.4422,-6.37066 -3.05442,-7.82397 -3.29511,-7.82252 -0.16266,8.6e-4 -1.98167,0.65994 -4.04232,1.46436 l -3.74664,1.46262 -3.02413,-7.75762 c -1.78241,-4.56861 -3.12785,-7.80279 -3.276,-7.86771 -0.14081,-0.0616 -1.9154,0.54726 -4.03042,1.38309 l -3.77919,1.4928 -3.00076,-7.83305 c -2.38258,-6.21987 -3.05885,-7.83286 -3.28466,-7.83137 -0.1561,7.6e-4 -1.98068,0.65548 -4.05434,1.45454 l -3.77046,1.45258 -2.86998,-7.37652 c -1.5775,-4.05743 -2.96402,-7.61468 -3.07971,-7.90554 l -0.21254,-0.52794 -20.73305,8.02364 c -11.40324,4.41283 -21.23488,8.25069 -21.84828,8.52804 -0.61333,0.27753 -5.5339,2.22955 -10.93458,4.33787 z m 3.3691,108.76177 c -0.1177,0.1101 -0.2868,0.1685 -0.37603,0.1293 -0.0892,-0.039 0.007,-0.1294 0.21379,-0.2005 0.2286,-0.078 0.29213,-0.051 0.16229,0.071 z"
         style="fill:#ffffff;fill-opacity:1;stroke:#ffffff;stroke-opacity:1" />
      <path
         transform="translate(0,552.36216)"
         id="path5218"
         d="m 180.23828,357.39844 c -0.97146,1.27715 -1.95478,2.54332 -2.8164,3.91601 -1.84692,-0.27897 -3.6883,-0.62987 -5.5586,-0.64062 l -0.01,0 -0.0117,0 c -21.42543,6e-5 -38.87809,17.45349 -38.87696,38.8789 l 0,0.0117 0,0.0117 c 0.007,1.36977 0.27657,2.71648 0.42774,4.07617 -7.57387,3.06908 -12.74178,10.49282 -12.75196,18.88672 -5.1e-4,11.2205 9.17843,20.4014 20.39844,20.4043 l 153.41992,0.13867 0.002,0 c 15.13443,-3e-4 27.48726,-12.35378 27.48633,-27.48828 -0.009,-11.11795 -6.76592,-20.98124 -16.82618,-25.23242 -0.018,-11.11279 -5.3919,-20.91747 -13.57031,-27.26172 l 7.93555,20.24609 -2.9375,1.14649 c 0.42867,1.90851 0.69869,3.87646 0.69922,5.91797 -0.006,0.74877 -0.0432,1.49689 -0.11133,2.24218 l -0.29492,3.23047 3.11328,0.91016 c 8.37464,2.44534 14.10661,10.0822 14.11328,18.80664 -10e-4,10.8728 -8.73069,19.60307 -19.60352,19.60547 l -153.41992,-0.13867 -0.002,0 c -6.96157,-5e-4 -12.52058,-5.55874 -12.52344,-12.51953 0.01,-5.93061 4.12366,-11.00018 9.92578,-12.23047 l 3.83594,-0.8125 -0.79492,-3.83985 c -0.41637,-2.01173 -0.62952,-4.0591 -0.64063,-6.11328 0.005,-17.15823 13.82641,-30.98172 30.98438,-30.98828 2.25176,0.0138 4.49578,0.27162 6.6914,0.77148 l 2.87305,0.6543 1.43945,-2.57226 c 0.62778,-1.12227 1.37206,-2.1493 2.08399,-3.20313 l -1.83789,0.70899 -1.47461,-3.90821 -1.36719,-3.61523 z m -8.57031,3.43359 c 0.2286,-0.078 0.29195,-0.0517 0.16211,0.0703 -0.1177,0.1101 -0.28773,0.16811 -0.37696,0.12891 -0.0892,-0.039 0.008,-0.12812 0.21485,-0.19922 z"
         style="color:#000000;font-style:normal;font-variant:normal;font-weight:normal;font-stretch:normal;font-size:medium;line-height:normal;font-family:sans-serif;text-indent:0;text-align:start;text-decoration:none;text-decoration-line:none;text-decoration-style:solid;text-decoration-color:#000000;letter-spacing:normal;word-spacing:normal;text-transform:none;direction:ltr;block-progression:tb;writing-mode:lr-tb;baseline-shift:baseline;text-anchor:start;white-space:normal;clip-rule:nonzero;display:inline;overflow:visible;visibility:visible;opacity:1;isolation:auto;mix-blend-mode:normal;color-interpolation:sRGB;color-interpolation-filters:linearRGB;solid-color:#000000;solid-opacity:1;fill:#ffffff;fill-opacity:1;fill-rule:evenodd;stroke:none;stroke-width:7.87934589;stroke-linecap:butt;stroke-linejoin:miter;stroke-miterlimit:4;stroke-dasharray:none;stroke-dashoffset:0;stroke-opacity:1;color-rendering:auto;image-rendering:auto;shape-rendering:auto;text-rendering:auto;enable-background:accumulate"
         inkscape:connector-curvature="0" />
    </g>
    <path
       style="color:#000000;font-style:normal;font-variant:normal;font-weight:normal;font-stretch:normal;font-size:medium;line-height:normal;font-family:sans-serif;text-indent:0;text-align:start;text-decoration:none;text-decoration-line:none;text-decoration-style:solid;text-decoration-color:#000000;letter-spacing:normal;word-spacing:normal;text-transform:none;direction:ltr;block-progression:tb;writing-mode:lr-tb;baseline-shift:baseline;text-anchor:start;white-space:normal;clip-rule:nonzero;display:inline;overflow:visible;visibility:visible;opacity:1;isolation:auto;mix-blend-mode:normal;color-interpolation:sRGB;color-interpolation-filters:linearRGB;solid-color:#000000;solid-opacity:1;fill:#ffffff;fill-opacity:1;fill-rule:evenodd;stroke:none;stroke-width:7.87934589;stroke-linecap:butt;stroke-linejoin:miter;stroke-miterlimit:4;stroke-dasharray:none;stroke-dashoffset:0;stroke-opacity:1;color-rendering:auto;image-rendering:auto;shape-rendering:auto;text-rendering:auto;enable-background:accumulate"
       d="m 158.4358,860.52224 3.06105,8.09426 3.30155,8.75023 4.11492,-1.58738 c 3.14561,-4.65632 6.55641,-9.07078 10.36383,-13.08815 l -0.36734,-0.90083 -3.52894,-8.70212 -8.78957,3.29719 -7.09288,2.65874 c -0.3733,0.47573 -0.696,0.99606 -1.06262,1.47806 z"
       id="path4179-0-7-0-9"
       inkscape:connector-curvature="0" />
  </g>
</svg>
